<svg width="59" height="58" viewBox="0 0 59 58" fill="none" xmlns="http://www.w3.org/2000/svg">
<rect width="59" height="58" rx="16" fill="#FCEED4"/>
<path d="M38.235 22.3065C38.2826 22.0121 38.2114 21.7109 38.037 21.469C37.8626 21.2271 37.5994 21.0644 37.305 21.0165C36.678 20.913 36.12 21.366 36.0075 21.9735C35.9605 22.2039 35.9055 22.4325 35.8425 22.659C35.7105 23.1435 35.487 23.844 35.1285 24.684C34.1579 26.9334 32.767 28.9769 31.0305 30.705C28.6803 33.0361 25.8161 34.7834 22.668 35.8065C22.4217 35.8841 22.1731 35.9541 21.9225 36.0165L21.8895 36.0255H21.885C21.7406 36.0568 21.6038 36.1163 21.4824 36.2005C21.361 36.2847 21.2573 36.3919 21.1774 36.5162C21.0974 36.6404 21.0427 36.7792 21.0164 36.9246C20.9901 37.07 20.9927 37.2191 21.024 37.3635C21.237 38.352 22.3605 38.226 22.3605 38.226L22.365 38.2245H22.371L22.3875 38.22L22.443 38.205C22.7456 38.1293 23.0457 38.0443 23.343 37.95C26.8362 36.818 30.0143 34.8803 32.6205 32.2935C34.5595 30.3629 36.1122 28.0801 37.1955 25.5675C37.6005 24.6255 37.8555 23.8275 38.013 23.256C38.0918 22.97 38.1603 22.6814 38.2185 22.3905L38.229 22.335L38.232 22.317V22.3095L38.235 22.3065ZM15.5265 30.8595C14.5005 33.708 14.364 36.6705 16.1835 38.5095L16.5345 38.865C18.0408 40.3902 19.5523 41.9102 21.069 43.425C22.989 45.345 26.0265 45.375 29.0025 44.415C32.0415 43.4325 35.3775 41.322 38.3415 38.358C41.3055 35.3955 43.4145 32.058 44.397 29.019C45.357 26.043 45.327 23.007 43.407 21.087C41.9571 19.6349 40.5111 18.1789 39.069 16.719L38.526 16.1685L38.523 16.1715C36.6855 14.3505 33.7215 14.487 30.873 15.5115C27.9255 16.575 24.6495 18.7275 21.6945 21.6825C18.7395 24.6375 16.5885 27.912 15.5265 30.8595ZM17.6415 31.623C18.57 29.0505 20.5125 26.0475 23.286 23.2725C26.061 20.4975 29.064 18.5565 31.635 17.6295C34.3005 16.6695 36.09 16.92 36.945 17.778L36.9495 17.775L37.4715 18.3015L38.7855 19.629C39.813 20.664 41.0355 21.897 41.8155 22.677C42.828 23.6895 43.128 25.6275 42.255 28.3275C41.4045 30.963 39.516 34.002 36.75 36.768C33.9855 39.5325 30.945 41.421 28.311 42.273C25.611 43.1445 23.6715 42.8445 22.6605 41.8335C21.1476 40.3204 19.6386 38.8034 18.1335 37.2825L17.7885 36.9345L17.7915 36.933C16.9335 36.075 16.6815 34.287 17.6415 31.623Z" fill="#FCAC12"/>
</svg>
