<svg xmlns="http://www.w3.org/2000/svg" version="1.1" xmlns:xlink="http://www.w3.org/1999/xlink" width="512" height="512" x="0" y="0" viewBox="0 0 50 50" style="enable-background:new 0 0 512 512" xml:space="preserve" class=""><g><path fill="#ff6193" d="M41.9 28.2c-.6-.2-1.3-.5-2-.9-.6-.3-.8-1-.5-1.6s1-.8 1.6-.5c3.3 1.8 4.7 1 5.1.7s.5-.8.5-1.1c-.1-.2-.2-.4-.6-.4-.7-.1-1.1-.7-1-1.3s.7-1.1 1.3-1c1.3.2 2.2 1 2.5 2.2.3 1.3-.2 2.7-1.3 3.6-.6.5-2.4 1.5-5.6.3z" opacity="1" data-original="#ff6193"></path><g fill="#fc1d6e"><path d="M12.7 39h5.6v6.9h-5.6zM29.5 39h5.6v6.9h-5.6z" fill="#fc1d6e" opacity="1" data-original="#fc1d6e"></path></g><path fill="#fc1d6e" d="M9.3 9.5v15.7c3.9-.5 7-3.8 7-7.9s-3-7.3-7-7.8z" opacity="1" data-original="#fc1d6e"></path><g fill="#ff6193"><ellipse cx="23.9" cy="27.5" rx="19.8" ry="16.9" fill="#ff6193" opacity="1" data-original="#ff6193"></ellipse><path d="M1 23.4h7.6v8.3H1zM12.8 8.1v15.7c3.9-.5 7-3.8 7-7.9s-3-7.3-7-7.8z" fill="#ff6193" opacity="1" data-original="#ff6193"></path></g><circle cx="10.2" cy="21.2" r="1.6" fill="#333353" opacity="1" data-original="#333353"></circle><g fill="#ff6193"><path d="M27.7 40.4h5.6v6.9h-5.6zM14.6 40.4h5.6v6.9h-5.6z" fill="#ff6193" opacity="1" data-original="#ff6193"></path></g><path fill="#fc1d6e" d="M20.6 17.1h13.6v2.8H20.6z" opacity="1" data-original="#fc1d6e"></path><circle cx="27.4" cy="10.7" r="8" fill="#fcb924" opacity="1" data-original="#fcb924"></circle><path fill="#ffffff" d="M28.7 12.6c0-.3-.1-.5-.3-.7s-.5-.4-.9-.5c-.4-.2-.8-.3-1-.4-.8-.4-1.2-1.1-1.2-1.9 0-.6.2-1.1.5-1.4s.8-.6 1.4-.7V5.7h.8v1.2c.6.1 1.1.3 1.4.8.3.4.5 1 .5 1.7h-1.3c0-.4-.1-.8-.3-1-.2-.3-.5-.4-.8-.4s-.6.1-.8.3-.3.3-.3.7c0 .3.1.5.3.7s.5.4 1 .5.8.3 1.1.5.5.3.6.5c.2.2.3.4.4.6s.1.5.1.8c0 .6-.2 1.1-.5 1.4-.4.4-.9.6-1.5.7v1H27v-1c-.7-.1-1.2-.3-1.6-.7s-.6-1-.6-1.7h1.3c0 .4.1.8.3 1s.5.4.9.4.7-.1.9-.3c.3-.2.5-.5.5-.8z" opacity="1" data-original="#ffffff"></path></g></svg>